<!DOCTYPE svg PUBLIC "-//W3C//DTD SVG 1.1//EN" "http://www.w3.org/Graphics/SVG/1.1/DTD/svg11.dtd">
<!-- Uploaded to: SVG Repo, www.svgrepo.com, Transformed by: SVG Repo Mixer Tools -->
<svg height="800px" width="800px" version="1.1" id="Layer_1" xmlns="http://www.w3.org/2000/svg" xmlns:xlink="http://www.w3.org/1999/xlink" viewBox="0 0 392.533 392.533" xml:space="preserve" fill="#000000">
<g id="SVGRepo_bgCarrier" stroke-width="0"/>
<g id="SVGRepo_tracerCarrier" stroke-linecap="round" stroke-linejoin="round"/>
<g id="SVGRepo_iconCarrier"> <path style="fill:#FFFFFF;" d="M359.822,99.62H32.711c-6.012,0-10.925,4.848-10.925,10.925v249.277 c0,6.012,4.848,10.925,10.925,10.925h327.111c6.012,0,10.925-4.848,10.925-10.925V110.481 C370.747,104.469,365.834,99.62,359.822,99.62z"/> <path style="fill:#56ACE0;" d="M327.111,121.406H65.422c-12.024,0-21.786,9.762-21.786,21.786v6.723h52.752 c6.012,0,10.925,4.848,10.925,10.925c0,6.012-4.848,10.925-10.925,10.925H43.572v16.485h26.376c6.012,0,10.925,4.848,10.925,10.925 c0,6.077-4.848,10.925-10.925,10.925H43.572V327.24c0,12.024,9.762,21.786,21.786,21.786h261.754 c12.024,0,21.786-9.762,21.786-21.786V143.192C348.962,131.103,339.135,121.406,327.111,121.406z"/> <path style="fill:#194F82;" d="M359.822,77.705h-68.461V32.711C291.362,14.675,276.687,0,258.651,0H133.883 c-18.036,0-32.711,14.675-32.711,32.711V77.77H32.711C14.675,77.77,0,92.444,0,110.545v249.277 c0,18.036,14.675,32.711,32.711,32.711h327.111c18.036,0,32.711-14.675,32.711-32.711V110.481 C392.533,92.38,377.859,77.705,359.822,77.705z M370.747,359.822c0,6.012-4.848,10.925-10.925,10.925H32.711 c-6.012,0-10.925-4.848-10.925-10.925V110.481c0-6.012,4.848-10.925,10.925-10.925h327.111c6.012,0,10.925,4.848,10.925,10.925 V359.822L370.747,359.822z M122.958,32.711c0-6.012,4.848-10.925,10.925-10.925h124.768c6.012,0,10.925,4.848,10.925,10.925V77.77 H122.958V32.711z"/> <path style="fill:#9a9996;" d="M276.04,215.273c-0.776-2.327-1.745-4.719-2.909-7.046c-2.004-4.008-1.164-8.857,2.004-12.154 l11.572-11.572l-18.036-17.972l-11.572,11.572c-3.168,3.168-8.016,4.008-12.024,2.004c-2.327-1.164-4.655-2.069-7.046-2.909 c-4.267-1.487-7.111-5.495-7.111-9.956v-16.356h-25.471v16.356c0,4.461-2.844,8.469-7.111,9.956 c-2.327,0.776-4.719,1.745-7.046,2.909c-4.073,2.004-8.857,1.164-12.024-2.004l-11.636-11.572l-18.036,18.036l11.572,11.572 c3.168,3.168,4.008,8.016,2.004,12.154c-1.164,2.327-2.133,4.719-2.909,6.982c-1.487,4.267-5.495,7.111-9.956,7.111h-16.485v25.471 h16.485c4.461,0,8.469,2.844,9.956,7.111c0.776,2.327,1.745,4.655,2.909,6.982c2.004,4.008,1.164,8.857-2.004,12.024l-11.572,11.572 l18.036,18.036l11.572-11.572c3.168-3.168,8.016-4.008,12.024-2.004c2.327,1.164,4.655,2.069,7.046,2.909 c4.267,1.487,7.111,5.495,7.111,9.956v16.356h25.471v-16.356c0-4.461,2.844-8.469,7.111-9.956c2.327-0.776,4.719-1.745,7.046-2.909 c4.008-2.004,8.857-1.164,12.024,2.004l11.572,11.572l18.036-18.036l-11.572-11.572c-3.168-3.168-4.008-8.016-2.004-12.024 c1.164-2.327,2.069-4.655,2.909-7.046c1.487-4.267,5.495-7.111,9.956-7.111h16.485v-25.471h-16.485 C281.406,222.384,277.463,219.539,276.04,215.273z M218.053,280.501c-25.018,0-45.382-20.299-45.382-45.382 s20.364-45.317,45.382-45.317s45.382,20.299,45.382,45.382S243.071,280.501,218.053,280.501z"/> <g> <path style="fill:#194F82;" d="M312.954,201.374H299.83l9.244-9.244c4.461-4.59,3.943-10.731,0-14.933l-32.905-32.905 c-4.073-4.073-10.796-4.073-14.933,0l-9.244,9.244v-13.123c0-5.818-4.719-10.537-10.537-10.537h-46.61 c-5.818,0-10.537,4.719-10.537,10.537v13.123l-9.244-9.244c-4.073-4.073-10.796-4.073-14.933,0l-32.905,32.905 c-4.073,4.073-4.267,10.602,0,14.933l9.244,9.244h-13.123c-5.818,0-10.537,4.719-10.537,10.537v46.61 c0,5.818,4.719,10.537,10.537,10.537h13.123l-9.244,9.244c-3.62,3.232-4.461,10.279,0,14.933l32.905,32.905 c4.073,4.073,10.796,4.073,14.933,0l9.244-9.244v13.123c0,5.818,4.719,10.537,10.537,10.537h46.61 c5.818,0,10.537-4.719,10.537-10.537v-13.123l9.244,9.244c4.073,4.073,10.796,4.073,14.933,0l32.905-32.905 c3.879-4.202,4.331-10.99,0-14.933l-9.244-9.244h13.123c5.818,0,10.537-4.719,10.537-10.537v-46.61 C323.426,206.093,318.772,201.374,312.954,201.374z M302.352,247.855h-16.485c-4.461,0-8.469,2.844-9.956,7.111 c-0.776,2.327-1.745,4.719-2.909,7.046c-2.004,4.008-1.164,8.857,2.004,12.024l11.572,11.572l-18.036,18.036l-11.507-11.572 c-3.168-3.168-8.016-4.008-12.024-2.004c-2.327,1.164-4.719,2.069-7.046,2.909c-4.267,1.487-7.111,5.495-7.111,9.956v16.356 h-25.535v-16.356c0-4.461-2.844-8.469-7.111-9.956c-2.327-0.776-4.719-1.745-7.046-2.909c-4.008-2.004-8.857-1.164-12.024,2.004 l-11.572,11.572l-18.036-18.036l11.572-11.572c3.168-3.168,4.008-8.016,2.004-12.024c-1.164-2.327-2.133-4.719-2.909-6.982 c-1.487-4.267-5.495-7.111-9.956-7.111h-16.485v-25.471h16.485c4.461,0,8.469-2.844,9.956-7.111 c0.776-2.327,1.745-4.655,2.909-6.982c2.004-4.008,1.164-8.857-2.004-12.154l-11.572-11.572l18.036-18.036l11.572,11.572 c3.168,3.168,8.016,4.008,12.024,2.004c2.327-1.164,4.655-2.069,7.046-2.909c4.267-1.487,7.111-5.495,7.111-9.956v-16.291h25.471 v16.356c0,4.461,2.844,8.469,7.111,9.956c2.327,0.776,4.719,1.745,7.046,2.909c4.073,2.004,8.857,1.164,12.024-2.004l11.572-11.572 l18.036,18.036l-11.572,11.572c-3.168,3.168-4.008,8.016-2.004,12.154c1.164,2.327,2.069,4.655,2.909,7.046 c1.487,4.267,5.495,7.111,9.956,7.111h16.485L302.352,247.855L302.352,247.855z"/> <path style="fill:#194F82;" d="M218.053,189.802c-25.018,0-45.382,20.299-45.382,45.382s20.299,45.382,45.382,45.382 s45.382-20.299,45.382-45.382S243.071,189.802,218.053,189.802z M218.053,259.426c-13.382,0-24.242-10.925-24.242-24.242 c0-13.317,10.925-24.242,24.242-24.242c13.317,0,24.242,10.925,24.242,24.242C242.295,248.501,231.499,259.426,218.053,259.426z"/> </g> </g>
</svg>